<svg xmlns="http://www.w3.org/2000/svg" viewBox="0 0 760 140" width="760" height="140">
  <defs>
    <style>
      .vs-blue { fill: #3575FF; }
      .vs-text {
        font-family: -apple-system, BlinkMacSystemFont, "Segoe UI", Roboto, "Helvetica Neue", Arial, sans-serif;
        font-weight: 900;
        font-style: italic;
        font-size: 112px;
        letter-spacing: -3px;
        fill: #3575FF;
      }
    </style>
  </defs>

  <!-- VS Logo Mark & zapower Text -->
  <g class="vs-blue">
    <!-- V Shape -->
    <path d="M 2 20 C 12 20 20 35 24 60 L 34 116 C 36 126 44 128 52 128 L 60 128 L 105 38 L 145 0 H 96 L 64 76 L 44 20 Z"/>
    
    <!-- S Shape -->
    <path d="M 120 38 C 104 38 90 50 88 65 C 85 88 110 92 138 92 H 180 C 194 92 192 104 176 104 H 96 C 80 104 76 116 90 116 H 174 C 202 116 212 90 202 72 C 192 52 168 48 142 48 H 118 C 108 48 110 38 122 38 H 212 L 224 20 H 130 C 124 20 122 28 120 38 Z"/>

    <!-- zapower Wordmark -->
    <text x="228" y="112" class="vs-text">zapower</text>
  </g>
</svg>
