<svg xmlns="http://www.w3.org/2000/svg" viewBox="0 0 600 130" width="600" height="130">
  <!-- Brand Electric Blue: #336BFF -->
  <g fill="#336BFF">
    <!-- VS Emblem Mark -->
    <!-- V Stroke -->
    <path d="M 0 20 C 10 20 18 35 22 60 L 32 118 C 34 125 40 128 48 128 L 56 128 L 100 38 L 138 0 H 92 L 60 76 L 40 20 Z"/>
    
    <!-- S Stroke -->
    <path d="M 116 38 C 100 38 88 50 86 65 C 83 88 108 92 135 92 H 175 C 188 92 186 104 172 104 H 92 C 78 104 74 116 88 116 H 168 C 195 116 204 90 196 72 C 188 52 165 48 140 48 H 115 C 106 48 108 38 120 38 H 205 L 216 20 H 125 C 120 20 118 28 116 38 Z"/>

    <!-- zapower Lowercase Slanted Text -->
    <text x="218" y="105" font-family="-apple-system, BlinkMacSystemFont, 'Segoe UI', Roboto, 'Helvetica Neue', Arial, sans-serif" font-weight="900" font-style="italic" font-size="106" letter-spacing="-3">zapower</text>
  </g>
</svg>
